# xmcd
#
# Track frame offsets: 
#        150
#        15297
#        34220
#        53827
#        86882
#        103972
#        117707
#        129785
#        139755
#        156822
#        171360
#        187320
#        210752
#        230432
#        242572
#        262377
#        274302
#        292140
#        310262
#
# Disc length: 4312 seconds
#
# Revision: 5
# Processed by: cddbd v1.5.2PL0 Copyright (c) Steve Scherf et al.
# Submitted via: ExactAudioCopy v1.3
#
DISCID=2110d613
DTITLE=Nanci Griffith - The Best of Nanci Griffith
DYEAR=1993
DGENRE=Country
TTITLE0=Trouble In The Fields
TTITLE1=From A Distance
TTITLE2=Speed Of The Sound Of Loneliness
TTITLE3=Love At The Five And Dime
TTITLE4=Listen To The Radio
TTITLE5=Gulf Coast Highway
TTITLE6=I Wish It Would Rain
TTITLE7=Ford Econoline
TTITLE8=If Wishes Were Changes
TTITLE9=The Wing And The Wheel
TTITLE10=Late Night Grande Hotel
TTITLE11=From Clare To Here
TTITLE12=It's Just Another Morning Here
TTITLE13=Tumble And Fall
TTITLE14=There's A Light Beyond These Woods (Mary Margaret)
TTITLE15=Outbound Plane
TTITLE16=Lone Star State Of Mind
TTITLE17=It's A Hard Life Wherever You Go
TTITLE18=The Road To Aberdeen
EXTD=European release YEAR: 1993
EXTT0=
EXTT1=
EXTT2=
EXTT3=
EXTT4=
EXTT5=
EXTT6=
EXTT7=
EXTT8=
EXTT9=
EXTT10=
EXTT11=
EXTT12=
EXTT13=
EXTT14=
EXTT15=
EXTT16=
EXTT17=
EXTT18=
PLAYORDER=
